<svg xmlns="http://www.w3.org/2000/svg" viewBox="0 0 760 410" width="760" height="410" role="img"><defs><marker id="ah" viewBox="0 0 10 10" refX="9" refY="5" markerWidth="7" markerHeight="7" orient="auto-start-reverse"><path d="M 0 0 L 10 5 L 0 10 z" fill="#3e4c59"/></marker></defs><rect width="760" height="410" fill="#ffffff"/><text x="40" y="28" font-family="system-ui, 'Segoe UI', 'Noto Sans CJK SC', 'Microsoft YaHei', sans-serif" font-size="13" text-anchor="start" fill="#1f2933" font-weight="600">题 44 图（b）</text><rect x="300" y="50" width="150" height="36" rx="6" fill="#f5f7fa" stroke="#3e4c59" stroke-width="1.6"/><text x="375.0" y="73.0" font-family="system-ui, 'Segoe UI', 'Noto Sans CJK SC', 'Microsoft YaHei', sans-serif" font-size="12" text-anchor="middle" fill="#1f2933" font-weight="600">除数寄存器 Y</text><text x="285" y="92" font-family="system-ui, 'Segoe UI', 'Noto Sans CJK SC', 'Microsoft YaHei', sans-serif" font-size="11" text-anchor="end" fill="#52606d" font-weight="400">32</text><line x1="375" y1="86" x2="375" y2="120" stroke="#3e4c59" stroke-width="1.6"/><polygon points="290,120 460,120 430,190 320,190" fill="#f5f7fa" stroke="#3e4c59" stroke-width="1.5"/><text x="375" y="158" font-family="system-ui, 'Segoe UI', 'Noto Sans CJK SC', 'Microsoft YaHei', sans-serif" font-size="12" text-anchor="middle" fill="#1f2933" font-weight="600">32 位 ALU</text><text x="455" y="106" font-family="system-ui, 'Segoe UI', 'Noto Sans CJK SC', 'Microsoft YaHei', sans-serif" font-size="11" text-anchor="start" fill="#52606d" font-weight="400">32</text><line x1="240" y1="120" x2="290" y2="132" stroke="#3e4c59" stroke-width="1.6"/><text x="238" y="116" font-family="system-ui, 'Segoe UI', 'Noto Sans CJK SC', 'Microsoft YaHei', sans-serif" font-size="11" text-anchor="end" fill="#52606d" font-weight="400">32</text><text x="500" y="128" font-family="system-ui, 'Segoe UI', 'Noto Sans CJK SC', 'Microsoft YaHei', sans-serif" font-size="11" text-anchor="start" fill="#1f4e79" font-weight="400">ALUop</text><line x1="470" y1="128" x2="600" y2="128" stroke="#3e4c59" stroke-width="1.6" stroke-dasharray="6 5"/><text x="363" y="206" font-family="system-ui, 'Segoe UI', 'Noto Sans CJK SC', 'Microsoft YaHei', sans-serif" font-size="11" text-anchor="end" fill="#52606d" font-weight="400">32</text><line x1="375" y1="190" x2="375" y2="226" stroke="#3e4c59" stroke-width="1.6"/><rect x="180" y="226" width="190" height="40" rx="6" fill="#f5f7fa" stroke="#3e4c59" stroke-width="1.6"/><text x="275.0" y="251.0" font-family="system-ui, 'Segoe UI', 'Noto Sans CJK SC', 'Microsoft YaHei', sans-serif" font-size="12" text-anchor="middle" fill="#1f2933" font-weight="600">余数寄存器 R</text><rect x="370" y="226" width="190" height="40" rx="6" fill="#f5f7fa" stroke="#3e4c59" stroke-width="1.6"/><text x="465.0" y="251.0" font-family="system-ui, 'Segoe UI', 'Noto Sans CJK SC', 'Microsoft YaHei', sans-serif" font-size="12" text-anchor="middle" fill="#1f2933" font-weight="600">余数/商寄存器 Q</text><text x="375" y="286" font-family="system-ui, 'Segoe UI', 'Noto Sans CJK SC', 'Microsoft YaHei', sans-serif" font-size="11" text-anchor="middle" fill="#52606d" font-weight="400">32 位</text><text x="600" y="236" font-family="system-ui, 'Segoe UI', 'Noto Sans CJK SC', 'Microsoft YaHei', sans-serif" font-size="12" text-anchor="start" fill="#1f4e79" font-weight="400">左移</text><text x="600" y="260" font-family="system-ui, 'Segoe UI', 'Noto Sans CJK SC', 'Microsoft YaHei', sans-serif" font-size="12" text-anchor="start" fill="#1f4e79" font-weight="400">写使能</text><line x1="600" y1="226" x2="565" y2="230" stroke="#3e4c59" stroke-width="1.6"/><line x1="600" y1="250" x2="565" y2="248" stroke="#3e4c59" stroke-width="1.6"/><ellipse cx="660" cy="300" rx="62" ry="40" fill="#eef3f8" stroke="#3e4c59" stroke-width="1.6"/><text x="660" y="305" font-family="system-ui, 'Segoe UI', 'Noto Sans CJK SC', 'Microsoft YaHei', sans-serif" font-size="12" text-anchor="middle" fill="#1f2933" font-weight="600">控制逻辑</text><line x1="660" y1="340" x2="660" y2="366" stroke="#3e4c59" stroke-width="1.6"/><text x="660" y="384" font-family="system-ui, 'Segoe UI', 'Noto Sans CJK SC', 'Microsoft YaHei', sans-serif" font-size="12" text-anchor="middle" fill="#1f4e79" font-weight="400">时钟</text><line x1="600" y1="128" x2="660" y2="128" stroke="#3e4c59" stroke-width="1.6"/><line x1="660" y1="128" x2="660" y2="260" stroke="#3e4c59" stroke-width="1.6" stroke-dasharray="6 5"/><line x1="180" y1="246" x2="100" y2="246" stroke="#3e4c59" stroke-width="1.6"/><line x1="100" y1="246" x2="100" y2="132" stroke="#3e4c59" stroke-width="1.6"/><line x1="100" y1="132" x2="240" y2="132" stroke="#3e4c59" stroke-width="1.6"/><text x="120" y="122" font-family="system-ui, 'Segoe UI', 'Noto Sans CJK SC', 'Microsoft YaHei', sans-serif" font-size="11" text-anchor="start" fill="#52606d" font-weight="400">32</text><line x1="370" y1="286" x2="370" y2="320" stroke="#3e4c59" stroke-width="1.6"/><line x1="370" y1="320" x2="620" y2="320" stroke="#3e4c59" stroke-width="1.6"/><line x1="620" y1="320" x2="620" y2="296" stroke="#3e4c59" stroke-width="1.6"/></svg>